<!-- Generated by IcoMoon.io -->
<svg version="1.1" xmlns="http://www.w3.org/2000/svg" width="5120" height="1024" viewBox="0 0 5120 1024">
<g id="icomoon-ignore">
</g>
<path d="M529.64 762.943l201.758 127.807c25.793 16.321 57.793-7.964 50.148-38.076l-58.271-229.279c-1.65-6.389-1.456-13.113 0.546-19.393 2.002-6.286 5.74-11.873 10.78-16.128l180.929-150.561c23.74-19.776 11.52-59.232-19.041-61.216l-236.26-15.36c-6.36-0.451-12.459-2.7-17.59-6.484-5.137-3.784-9.085-8.949-11.401-14.892l-88.127-221.888c-2.4-6.306-6.659-11.734-12.215-15.563s-12.142-5.881-18.889-5.881c-6.747 0-13.335 2.051-18.89 5.881s-9.814 9.257-12.214 15.563l-88.128 221.888c-2.307 5.949-6.257 11.12-11.39 14.911s-11.238 6.044-17.602 6.498l-236.256 15.359c-30.528 1.952-42.816 41.408-19.040 61.185l180.928 150.589c5.034 4.255 8.767 9.842 10.771 16.117s2.196 12.993 0.557 19.376l-54.016 212.639c-9.184 36.124 29.248 65.28 60.16 45.665l187.52-118.756c5.271-3.351 11.387-5.131 17.632-5.131s12.361 1.781 17.632 5.131h-0.032z"></path>
<path d="M1553.641 762.943l201.756 127.807c25.793 16.321 57.793-7.964 50.148-38.076l-58.271-229.279c-1.65-6.389-1.456-13.113 0.546-19.393 2.002-6.286 5.74-11.873 10.78-16.128l180.929-150.562c23.74-19.776 11.52-59.232-19.041-61.216l-236.26-15.36c-6.36-0.451-12.459-2.7-17.59-6.484-5.137-3.784-9.085-8.949-11.401-14.892l-88.127-221.888c-2.401-6.306-6.662-11.734-12.214-15.563-5.558-3.83-12.146-5.881-18.893-5.881s-13.335 2.051-18.887 5.881c-5.552 3.829-9.813 9.257-12.214 15.563l-88.127 221.888c-2.31 5.949-6.258 11.12-11.389 14.911-5.137 3.79-11.241 6.044-17.607 6.497l-236.254 15.36c-30.527 1.952-42.815 41.408-19.041 61.184l180.929 150.59c5.035 4.255 8.767 9.842 10.769 16.117s2.196 12.993 0.558 19.376l-54.016 212.639c-9.182 36.124 29.247 65.28 60.16 45.665l187.523-118.756c5.268-3.351 11.383-5.131 17.63-5.131s12.362 1.781 17.63 5.131h-0.028z"></path>
<path d="M2577.641 762.943l201.756 127.807c25.793 16.321 57.793-7.964 50.148-38.076l-58.271-229.279c-1.65-6.389-1.456-13.113 0.546-19.393 2.002-6.286 5.74-11.873 10.78-16.128l180.929-150.562c23.74-19.776 11.52-59.232-19.041-61.216l-236.26-15.36c-6.36-0.451-12.459-2.7-17.59-6.484-5.137-3.784-9.085-8.949-11.401-14.892l-88.127-221.888c-2.401-6.306-6.662-11.734-12.214-15.563-5.558-3.83-12.146-5.881-18.893-5.881s-13.335 2.051-18.887 5.881c-5.552 3.829-9.813 9.257-12.214 15.563l-88.127 221.888c-2.31 5.949-6.258 11.12-11.389 14.911-5.137 3.79-11.241 6.044-17.607 6.497l-236.254 15.36c-30.527 1.952-42.815 41.408-19.041 61.184l180.929 150.59c5.035 4.255 8.767 9.842 10.769 16.117s2.196 12.993 0.558 19.376l-54.016 212.639c-9.182 36.124 29.247 65.28 60.16 45.665l187.523-118.756c5.268-3.351 11.383-5.131 17.63-5.131s12.362 1.781 17.63 5.131h-0.028z"></path>
<path d="M3601.641 762.943l201.756 127.807c25.793 16.321 57.793-7.964 50.148-38.076l-58.271-229.279c-1.65-6.389-1.456-13.113 0.546-19.393 2.002-6.286 5.74-11.873 10.78-16.128l180.929-150.562c23.74-19.776 11.52-59.232-19.041-61.216l-236.26-15.36c-6.36-0.451-12.459-2.7-17.59-6.484-5.137-3.784-9.085-8.949-11.401-14.892l-88.127-221.888c-2.401-6.306-6.662-11.734-12.214-15.563-5.558-3.83-12.146-5.881-18.893-5.881s-13.335 2.051-18.887 5.881c-5.552 3.829-9.813 9.257-12.214 15.563l-88.127 221.888c-2.31 5.949-6.258 11.12-11.389 14.911-5.137 3.79-11.241 6.044-17.607 6.497l-236.254 15.36c-30.527 1.952-42.815 41.408-19.041 61.184l180.929 150.59c5.035 4.255 8.767 9.842 10.769 16.117s2.196 12.993 0.558 19.376l-54.016 212.639c-9.182 36.124 29.247 65.28 60.16 45.665l187.523-118.756c5.268-3.351 11.383-5.131 17.63-5.131s12.362 1.781 17.63 5.131h-0.028z"></path>
<path d="M4625.641 762.943l201.756 127.807c25.793 16.321 57.793-7.964 50.148-38.076l-58.271-229.279c-1.65-6.389-1.456-13.113 0.546-19.393 2.002-6.286 5.74-11.873 10.78-16.128l180.929-150.562c23.74-19.776 11.52-59.232-19.041-61.216l-236.26-15.36c-6.36-0.451-12.459-2.7-17.59-6.484-5.137-3.784-9.085-8.949-11.401-14.892l-88.127-221.888c-2.401-6.306-6.662-11.734-12.214-15.563-5.558-3.83-12.146-5.881-18.893-5.881s-13.335 2.051-18.887 5.881c-5.552 3.829-9.813 9.257-12.214 15.563l-88.127 221.888c-2.31 5.949-6.258 11.12-11.389 14.911-5.137 3.79-11.241 6.044-17.607 6.497l-236.254 15.36c-30.527 1.952-42.815 41.408-19.041 61.184l180.929 150.59c5.035 4.255 8.767 9.842 10.769 16.117s2.196 12.993 0.558 19.376l-54.016 212.639c-9.182 36.124 29.247 65.28 60.16 45.665l187.523-118.756c5.268-3.351 11.383-5.131 17.63-5.131s12.362 1.781 17.63 5.131h-0.028z"></path>
</svg>
