<svg width="167" height="48" viewBox="0 0 167 48" fill="none" xmlns="http://www.w3.org/2000/svg">
<path opacity="0.8" fill-rule="evenodd" clip-rule="evenodd" d="M20.0294 36.4667C26.1414 36.4667 31.0961 30.8851 31.0961 24C31.0961 17.1148 26.1414 11.5333 20.0294 11.5333C13.9175 11.5333 8.96274 17.1148 8.96274 24C8.96274 30.8851 13.9175 36.4667 20.0294 36.4667ZM20.0294 46C30.8152 46 39.5588 36.1503 39.5588 24C39.5588 11.8497 30.8152 2 20.0294 2C9.24361 2 0.5 11.8497 0.5 24C0.5 36.1503 9.24361 46 20.0294 46Z" fill="#5D6491"/>
<path opacity="0.6" d="M20.2528 24.4819C22.2866 22.1908 25.584 22.1908 27.6178 24.4819L37.7447 35.8898C39.7785 38.1809 39.7785 41.8955 37.7447 44.1866V44.1866C35.7109 46.4776 32.4135 46.4776 30.3797 44.1866L20.2528 32.7786C18.219 30.4875 18.219 26.7729 20.2528 24.4819V24.4819Z" fill="#5D6491"/>
<path d="M23.0963 35.9816L29.5279 43.2269C32.6129 41.2887 35.183 38.4357 36.9492 34.9936L30.5702 27.8076C29.4498 31.747 26.6373 34.8334 23.0963 35.9816Z" fill="#5D6491"/>
<path d="M71.09 36.0999C70.5266 36.8839 69.8389 37.4812 69.0269 37.8919C68.2316 38.3025 67.3533 38.5079 66.3922 38.5079C65.0997 38.5079 63.9315 38.1905 62.8876 37.5559C61.8437 36.9399 60.6506 35.8385 59.3084 34.2519C57.7342 34.0279 56.3257 33.4585 55.0829 32.5439C53.8567 31.6292 52.8956 30.4532 52.1997 29.0159C51.5203 27.5599 51.1806 25.9545 51.1806 24.1999C51.1806 22.2772 51.5866 20.5505 52.3985 19.0199C53.227 17.4705 54.3621 16.2572 55.8037 15.3799C57.2619 14.5025 58.8941 14.0639 60.7003 14.0639C62.5065 14.0639 64.1304 14.5025 65.572 15.3799C67.0136 16.2572 68.1487 17.4705 68.9772 19.0199C69.8057 20.5505 70.22 22.2772 70.22 24.1999C70.22 26.4772 69.6483 28.4745 68.505 30.1919C67.3782 31.9092 65.8786 33.1039 64.0061 33.7759C64.4204 34.2612 64.8181 34.6065 65.1992 34.8119C65.5969 35.0359 66.0194 35.1479 66.4668 35.1479C67.5439 35.1479 68.4884 34.6625 69.3003 33.6919L71.09 36.0999ZM55.2569 24.1999C55.2569 25.4132 55.4889 26.4959 55.9529 27.4479C56.4334 28.3999 57.088 29.1465 57.9165 29.6879C58.745 30.2105 59.6729 30.4719 60.7003 30.4719C61.7277 30.4719 62.6556 30.2105 63.4841 29.6879C64.3127 29.1465 64.9589 28.3999 65.4229 27.4479C65.9034 26.4959 66.1437 25.4132 66.1437 24.1999C66.1437 22.9865 65.9034 21.9039 65.4229 20.9519C64.9589 19.9999 64.3127 19.2625 63.4841 18.7399C62.6556 18.1985 61.7277 17.9279 60.7003 17.9279C59.6729 17.9279 58.745 18.1985 57.9165 18.7399C57.088 19.2625 56.4334 19.9999 55.9529 20.9519C55.4889 21.9039 55.2569 22.9865 55.2569 24.1999Z" fill="#5D6491"/>
<path d="M86.4445 18.9359V33.9999H82.7659V32.2079C82.2522 32.8612 81.6391 33.3652 80.9266 33.7199C80.214 34.0559 79.4435 34.2239 78.615 34.2239C76.8585 34.2239 75.4666 33.6545 74.4392 32.5159C73.4119 31.3772 72.8982 29.6879 72.8982 27.4479V18.9359H76.7757V26.8039C76.7757 29.2305 77.6788 30.4439 79.4849 30.4439C80.4129 30.4439 81.1585 30.1079 81.7219 29.4359C82.2853 28.7452 82.567 27.7279 82.567 26.3839V18.9359H86.4445Z" fill="#5D6491"/>
<path d="M96.3998 34.2239C94.9913 34.2239 93.7236 33.8972 92.5969 33.2439C91.4866 32.5719 90.6167 31.6479 89.987 30.4719C89.3573 29.2959 89.0425 27.9612 89.0425 26.4679C89.0425 24.9745 89.3573 23.6399 89.987 22.4639C90.6167 21.2879 91.4866 20.3732 92.5969 19.7199C93.7236 19.0479 94.9913 18.7119 96.3998 18.7119C97.8083 18.7119 99.0676 19.0479 100.178 19.7199C101.288 20.3732 102.158 21.2879 102.788 22.4639C103.417 23.6399 103.732 24.9745 103.732 26.4679C103.732 27.9612 103.417 29.2959 102.788 30.4719C102.158 31.6479 101.288 32.5719 100.178 33.2439C99.0676 33.8972 97.8083 34.2239 96.3998 34.2239ZM96.3998 30.6399C97.394 30.6399 98.2059 30.2665 98.8356 29.5199C99.4819 28.7545 99.805 27.7372 99.805 26.4679C99.805 25.1985 99.4819 24.1905 98.8356 23.4439C98.2059 22.6785 97.394 22.2959 96.3998 22.2959C95.4055 22.2959 94.5853 22.6785 93.9391 23.4439C93.2928 24.1905 92.9697 25.1985 92.9697 26.4679C92.9697 27.7372 93.2928 28.7545 93.9391 29.5199C94.5853 30.2665 95.4055 30.6399 96.3998 30.6399Z" fill="#5D6491"/>
<path d="M114.949 33.2719C114.568 33.5892 114.095 33.8319 113.532 33.9999C112.985 34.1492 112.405 34.2239 111.792 34.2239C110.201 34.2239 108.967 33.7665 108.089 32.8519C107.227 31.9372 106.796 30.5932 106.796 28.8199V22.6319H104.733V19.2719H106.796V15.6039H110.674V19.2719H114.004V22.6319H110.674V28.7639C110.674 29.3985 110.815 29.8932 111.096 30.2479C111.394 30.5839 111.809 30.7519 112.339 30.7519C112.952 30.7519 113.474 30.5652 113.905 30.1919L114.949 33.2719Z" fill="#5D6491"/>
<path d="M117.125 18.9359H121.003V33.9999H117.125V18.9359ZM119.064 16.8359C118.352 16.8359 117.772 16.6025 117.324 16.1359C116.877 15.6692 116.653 15.0905 116.653 14.3999C116.653 13.7092 116.877 13.1305 117.324 12.6639C117.772 12.1972 118.352 11.9639 119.064 11.9639C119.777 11.9639 120.357 12.1879 120.804 12.6359C121.251 13.0839 121.475 13.6439 121.475 14.3159C121.475 15.0439 121.251 15.6505 120.804 16.1359C120.357 16.6025 119.777 16.8359 119.064 16.8359Z" fill="#5D6491"/>
<path d="M137.7 26.5239C137.7 26.5799 137.676 26.9719 137.626 27.6999H127.51C127.692 28.6332 128.123 29.3705 128.802 29.9119C129.482 30.4532 130.327 30.7239 131.337 30.7239C132.033 30.7239 132.647 30.6119 133.177 30.3879C133.724 30.1452 134.229 29.7719 134.693 29.2679L136.756 31.7879C135.497 33.4119 133.657 34.2239 131.238 34.2239C129.73 34.2239 128.396 33.8972 127.236 33.2439C126.076 32.5719 125.182 31.6479 124.552 30.4719C123.922 29.2959 123.607 27.9612 123.607 26.4679C123.607 24.9932 123.914 23.6679 124.527 22.4919C125.157 21.2972 126.01 20.3732 127.087 19.7199C128.181 19.0479 129.399 18.7119 130.741 18.7119C132.05 18.7119 133.235 19.0292 134.295 19.6639C135.356 20.2985 136.184 21.2132 136.781 22.4079C137.394 23.5839 137.7 24.9559 137.7 26.5239ZM130.766 22.0159C129.888 22.0159 129.15 22.2959 128.554 22.8559C127.957 23.4159 127.593 24.1812 127.46 25.1519H134.047C133.914 24.1999 133.55 23.4439 132.953 22.8839C132.357 22.3052 131.627 22.0159 130.766 22.0159Z" fill="#5D6491"/>
<path d="M148.41 18.7119C150.067 18.7119 151.401 19.2719 152.412 20.3919C153.439 21.5119 153.953 23.1732 153.953 25.3759V33.9999H150.075V26.0479C150.075 24.8532 149.843 23.9665 149.379 23.3879C148.915 22.7905 148.244 22.4919 147.366 22.4919C146.388 22.4919 145.609 22.8372 145.029 23.5279C144.449 24.1999 144.159 25.2079 144.159 26.5519V33.9999H140.282V18.9359H143.985V20.6999C144.499 20.0652 145.137 19.5799 145.899 19.2439C146.662 18.8892 147.498 18.7119 148.41 18.7119Z" fill="#5D6491"/>
<path d="M166.092 33.2719C165.711 33.5892 165.239 33.8319 164.675 33.9999C164.129 34.1492 163.549 34.2239 162.936 34.2239C161.345 34.2239 160.11 33.7665 159.232 32.8519C158.37 31.9372 157.94 30.5932 157.94 28.8199V22.6319H155.877V19.2719H157.94V15.6039H161.817V19.2719H165.148V22.6319H161.817V28.7639C161.817 29.3985 161.958 29.8932 162.24 30.2479C162.538 30.5839 162.952 30.7519 163.482 30.7519C164.095 30.7519 164.617 30.5652 165.048 30.1919L166.092 33.2719Z" fill="#5D6491"/>
</svg>
