<svg width="198" height="48" viewBox="0 0 198 48" fill="none" xmlns="http://www.w3.org/2000/svg">
<path opacity="0.8" d="M36.3065 11.1633C35.8743 10.7311 35.4421 10.2989 35.0099 9.86666C33.7132 8.48356 32.3301 7.10046 30.6012 6.23602C28.613 5.19869 26.4519 5.45801 24.2908 5.45801C21.0059 5.45801 12.7937 5.45801 7.95288 5.45801L11.2378 9.86666C17.2024 9.86666 26.5383 9.86666 30.8605 9.86666C32.6759 9.86666 34.2319 10.2124 35.7014 11.1633C35.9607 11.2498 36.2201 11.2498 36.3065 11.1633Z" fill="#5D6491"/>
<path opacity="0.9" d="M39.9372 18.2517C39.505 17.8195 39.0727 17.3873 38.6405 16.955C37.3439 15.5719 35.9608 14.1888 34.2319 13.3244C32.2437 12.2871 30.0826 12.5464 27.9215 12.5464C25.0688 12.5464 18.2397 12.5464 13.3989 12.5464L16.6837 16.955C22.5619 16.955 30.6012 16.955 34.5777 16.955C36.393 16.955 37.949 17.3008 39.4185 18.2517C39.5914 18.3381 39.7643 18.3381 39.9372 18.2517Z" fill="#5D6491"/>
<path d="M44 25.1667C43.5678 24.7345 43.1356 24.3023 42.7034 23.8701C41.4067 22.487 40.0236 21.1039 38.2947 20.2394C36.3065 19.2021 34.1454 19.4614 31.9843 19.4614C29.3045 19.4614 23.4264 19.4614 18.6719 19.4614L21.9568 23.8701C27.6621 23.8701 34.9234 23.8701 38.5541 23.8701C40.3694 23.8701 41.9254 24.2159 43.3949 25.1667C43.6542 25.2532 43.8271 25.3396 44 25.1667Z" fill="#5D6491"/>
<path opacity="0.8" d="M7.60718 36.8368C8.0394 37.269 8.47162 37.7012 8.90384 38.1335C10.2005 39.5166 11.5836 40.8997 13.3125 41.7641C15.3007 42.8014 17.4618 42.5421 19.6229 42.5421H35.9608L32.6759 38.1335C26.7113 38.1335 17.3754 38.1335 13.0532 38.1335C11.2378 38.1335 9.68183 37.7877 8.21228 36.8368C7.95295 36.7504 7.78007 36.7504 7.60718 36.8368Z" fill="#5D6491"/>
<path opacity="0.9" d="M3.97644 29.7489C4.40866 30.1811 4.84088 30.6134 5.2731 31.0456C6.56976 32.4287 7.95286 33.8118 9.68174 34.6762C11.67 35.7136 13.8311 35.4542 15.9922 35.4542H30.5148L27.2299 31.0456C21.3517 31.0456 13.3124 31.0456 9.33597 31.0456C7.52064 31.0456 5.96465 30.6998 4.4951 29.7489C4.32221 29.6625 4.14933 29.6625 3.97644 29.7489Z" fill="#5D6491"/>
<path d="M0 22.7465C0.43222 23.1787 0.86444 23.6109 1.29666 24.0431C2.59332 25.4262 3.97643 26.8094 5.70531 27.6738C7.69352 28.7111 9.85461 28.4518 12.0157 28.4518H25.3281L22.0432 24.0431C16.3379 24.0431 9.07662 24.0431 5.44598 24.0431C3.63065 24.0431 2.07465 23.6974 0.605106 22.7465C0.345773 22.66 0.172888 22.66 0 22.7465Z" fill="#5D6491"/>
<path d="M53.932 14.0078V33.9998H58.328V25.7398H66.7V22.3238H58.328V17.7038H67.988V14.0078H53.932Z" fill="#5D6491"/>
<path d="M79.0137 25.2078H72.5457C72.5643 24.9278 72.6203 24.6105 72.7137 24.2558C72.8257 23.9011 73.003 23.5651 73.2457 23.2478C73.507 22.9305 73.843 22.6691 74.2537 22.4638C74.683 22.2398 75.215 22.1278 75.8497 22.1278C76.8203 22.1278 77.539 22.3891 78.0057 22.9118C78.491 23.4345 78.827 24.1998 79.0137 25.2078ZM72.5457 27.7278H82.9897C83.0643 26.6078 82.971 25.5345 82.7097 24.5078C82.4483 23.4811 82.019 22.5665 81.4217 21.7638C80.843 20.9611 80.0963 20.3265 79.1817 19.8598C78.267 19.3745 77.1937 19.1318 75.9617 19.1318C74.8603 19.1318 73.8523 19.3278 72.9377 19.7198C72.0417 20.1118 71.267 20.6531 70.6137 21.3438C69.9603 22.0158 69.4563 22.8185 69.1017 23.7518C68.747 24.6851 68.5697 25.6931 68.5697 26.7758C68.5697 27.8958 68.7377 28.9225 69.0737 29.8558C69.4283 30.7891 69.923 31.5918 70.5577 32.2638C71.1923 32.9358 71.967 33.4585 72.8817 33.8318C73.7963 34.1865 74.823 34.3638 75.9617 34.3638C77.6043 34.3638 79.0043 33.9905 80.1617 33.2438C81.319 32.4971 82.1777 31.2558 82.7377 29.5198H79.2377C79.107 29.9678 78.7523 30.3971 78.1737 30.8078C77.595 31.1998 76.9043 31.3958 76.1017 31.3958C74.9817 31.3958 74.123 31.1065 73.5257 30.5278C72.9283 29.9491 72.6017 29.0158 72.5457 27.7278Z" fill="#5D6491"/>
<path d="M84.3398 23.9758C84.3958 23.0425 84.6291 22.2678 85.0398 21.6518C85.4505 21.0358 85.9731 20.5411 86.6078 20.1678C87.2425 19.7945 87.9518 19.5331 88.7358 19.3838C89.5385 19.2158 90.3411 19.1318 91.1438 19.1318C91.8718 19.1318 92.6091 19.1878 93.3558 19.2998C94.1025 19.3931 94.7838 19.5891 95.3998 19.8878C96.0158 20.1865 96.5198 20.6065 96.9118 21.1478C97.3038 21.6705 97.4998 22.3705 97.4998 23.2478V30.7798C97.4998 31.4331 97.5371 32.0585 97.6118 32.6558C97.6865 33.2531 97.8171 33.7011 98.0038 33.9998H93.9718C93.8971 33.7758 93.8318 33.5518 93.7758 33.3278C93.7385 33.0851 93.7105 32.8425 93.6918 32.5998C93.0571 33.2531 92.3105 33.7105 91.4518 33.9718C90.5931 34.2331 89.7158 34.3638 88.8198 34.3638C88.1291 34.3638 87.4851 34.2798 86.8878 34.1118C86.2905 33.9438 85.7678 33.6825 85.3198 33.3278C84.8718 32.9731 84.5171 32.5251 84.2558 31.9838C84.0131 31.4425 83.8918 30.7985 83.8918 30.0518C83.8918 29.2305 84.0318 28.5585 84.3118 28.0358C84.6105 27.4945 84.9838 27.0651 85.4318 26.7478C85.8985 26.4305 86.4211 26.1971 86.9998 26.0478C87.5971 25.8798 88.1945 25.7491 88.7918 25.6558C89.3891 25.5625 89.9771 25.4878 90.5558 25.4318C91.1345 25.3758 91.6478 25.2918 92.0958 25.1798C92.5438 25.0678 92.8985 24.9091 93.1598 24.7038C93.4211 24.4798 93.5425 24.1625 93.5238 23.7518C93.5238 23.3225 93.4491 22.9865 93.2998 22.7438C93.1691 22.4825 92.9825 22.2865 92.7398 22.1558C92.5158 22.0065 92.2451 21.9131 91.9278 21.8758C91.6291 21.8198 91.3025 21.7918 90.9478 21.7918C90.1638 21.7918 89.5478 21.9598 89.0998 22.2958C88.6518 22.6318 88.3905 23.1918 88.3158 23.9758H84.3398ZM93.5238 26.9158C93.3558 27.0651 93.1411 27.1865 92.8798 27.2798C92.6371 27.3545 92.3665 27.4198 92.0678 27.4758C91.7878 27.5318 91.4891 27.5785 91.1718 27.6158C90.8545 27.6531 90.5371 27.6998 90.2198 27.7558C89.9211 27.8118 89.6225 27.8865 89.3238 27.9798C89.0438 28.0731 88.7918 28.2038 88.5678 28.3718C88.3625 28.5211 88.1945 28.7171 88.0638 28.9598C87.9331 29.2025 87.8678 29.5105 87.8678 29.8838C87.8678 30.2385 87.9331 30.5371 88.0638 30.7798C88.1945 31.0225 88.3718 31.2185 88.5958 31.3678C88.8198 31.4985 89.0811 31.5918 89.3798 31.6478C89.6785 31.7038 89.9865 31.7318 90.3038 31.7318C91.0878 31.7318 91.6945 31.6011 92.1238 31.3398C92.5531 31.0785 92.8705 30.7705 93.0758 30.4158C93.2811 30.0425 93.4025 29.6691 93.4398 29.2958C93.4958 28.9225 93.5238 28.6238 93.5238 28.3998V26.9158Z" fill="#5D6491"/>
<path d="M104.786 19.5238V15.1838H100.81V19.5238H98.4019V22.1838H100.81V30.7238C100.81 31.4518 100.931 32.0398 101.174 32.4878C101.417 32.9358 101.743 33.2811 102.154 33.5238C102.583 33.7665 103.069 33.9251 103.61 33.9998C104.17 34.0931 104.758 34.1398 105.374 34.1398C105.766 34.1398 106.167 34.1305 106.578 34.1118C106.989 34.0931 107.362 34.0558 107.698 33.9998V30.9198C107.511 30.9571 107.315 30.9851 107.11 31.0038C106.905 31.0225 106.69 31.0318 106.466 31.0318C105.794 31.0318 105.346 30.9198 105.122 30.6958C104.898 30.4718 104.786 30.0238 104.786 29.3518V22.1838H107.698V19.5238H104.786Z" fill="#5D6491"/>
<path d="M108.75 14.0078V33.9998H112.726V26.4118C112.726 24.9371 112.968 23.8825 113.454 23.2478C113.939 22.5945 114.723 22.2678 115.806 22.2678C116.758 22.2678 117.42 22.5665 117.794 23.1638C118.167 23.7425 118.354 24.6291 118.354 25.8238V33.9998H122.33V25.0958C122.33 24.1998 122.246 23.3878 122.078 22.6598C121.928 21.9131 121.658 21.2878 121.266 20.7838C120.874 20.2611 120.332 19.8598 119.642 19.5798C118.97 19.2811 118.102 19.1318 117.038 19.1318C116.291 19.1318 115.526 19.3278 114.742 19.7198C113.958 20.0931 113.314 20.6998 112.81 21.5398H112.726V14.0078H108.75Z" fill="#5D6491"/>
<path d="M134.251 25.2078H127.783C127.802 24.9278 127.858 24.6105 127.951 24.2558C128.063 23.9011 128.241 23.5651 128.483 23.2478C128.745 22.9305 129.081 22.6691 129.491 22.4638C129.921 22.2398 130.453 22.1278 131.087 22.1278C132.058 22.1278 132.777 22.3891 133.243 22.9118C133.729 23.4345 134.065 24.1998 134.251 25.2078ZM127.783 27.7278H138.227C138.302 26.6078 138.209 25.5345 137.947 24.5078C137.686 23.4811 137.257 22.5665 136.659 21.7638C136.081 20.9611 135.334 20.3265 134.419 19.8598C133.505 19.3745 132.431 19.1318 131.199 19.1318C130.098 19.1318 129.09 19.3278 128.175 19.7198C127.279 20.1118 126.505 20.6531 125.851 21.3438C125.198 22.0158 124.694 22.8185 124.339 23.7518C123.985 24.6851 123.807 25.6931 123.807 26.7758C123.807 27.8958 123.975 28.9225 124.311 29.8558C124.666 30.7891 125.161 31.5918 125.795 32.2638C126.43 32.9358 127.205 33.4585 128.119 33.8318C129.034 34.1865 130.061 34.3638 131.199 34.3638C132.842 34.3638 134.242 33.9905 135.399 33.2438C136.557 32.4971 137.415 31.2558 137.975 29.5198H134.475C134.345 29.9678 133.99 30.3971 133.411 30.8078C132.833 31.1998 132.142 31.3958 131.339 31.3958C130.219 31.3958 129.361 31.1065 128.763 30.5278C128.166 29.9491 127.839 29.0158 127.783 27.7278Z" fill="#5D6491"/>
<path d="M139.745 19.5238V33.9998H143.721V27.4758C143.721 26.8225 143.787 26.2158 143.917 25.6558C144.048 25.0958 144.263 24.6105 144.561 24.1998C144.879 23.7705 145.289 23.4345 145.793 23.1918C146.297 22.9491 146.913 22.8278 147.641 22.8278C147.884 22.8278 148.136 22.8465 148.397 22.8838C148.659 22.9025 148.883 22.9305 149.069 22.9678V19.2718C148.752 19.1785 148.463 19.1318 148.201 19.1318C147.697 19.1318 147.212 19.2065 146.745 19.3558C146.279 19.5051 145.84 19.7198 145.429 19.9998C145.019 20.2611 144.655 20.5878 144.337 20.9798C144.02 21.3531 143.768 21.7638 143.581 22.2118H143.525V19.5238H139.745Z" fill="#5D6491"/>
<path d="M154.604 30.3038V17.7038H157.74C158.823 17.7038 159.728 17.8625 160.456 18.1798C161.203 18.4785 161.8 18.9171 162.248 19.4958C162.696 20.0745 163.014 20.7745 163.2 21.5958C163.406 22.3985 163.508 23.3038 163.508 24.3118C163.508 25.4131 163.368 26.3465 163.088 27.1118C162.808 27.8771 162.435 28.5025 161.968 28.9878C161.502 29.4545 160.97 29.7905 160.372 29.9958C159.775 30.2011 159.159 30.3038 158.524 30.3038H154.604ZM150.208 14.0078V33.9998H158.832C160.363 33.9998 161.688 33.7478 162.808 33.2438C163.947 32.7211 164.89 32.0118 165.636 31.1158C166.402 30.2198 166.971 29.1558 167.344 27.9238C167.718 26.6918 167.904 25.3478 167.904 23.8918C167.904 22.2305 167.671 20.7838 167.204 19.5518C166.756 18.3198 166.122 17.2931 165.3 16.4718C164.498 15.6505 163.536 15.0345 162.416 14.6238C161.315 14.2131 160.12 14.0078 158.832 14.0078H150.208Z" fill="#5D6491"/>
<path d="M179.446 25.2078H172.978C172.997 24.9278 173.053 24.6105 173.146 24.2558C173.258 23.9011 173.435 23.5651 173.678 23.2478C173.939 22.9305 174.275 22.6691 174.686 22.4638C175.116 22.2398 175.647 22.1278 176.282 22.1278C177.253 22.1278 177.971 22.3891 178.438 22.9118C178.924 23.4345 179.259 24.1998 179.446 25.2078ZM172.978 27.7278H183.422C183.497 26.6078 183.403 25.5345 183.142 24.5078C182.881 23.4811 182.451 22.5665 181.854 21.7638C181.275 20.9611 180.529 20.3265 179.614 19.8598C178.7 19.3745 177.626 19.1318 176.394 19.1318C175.293 19.1318 174.285 19.3278 173.37 19.7198C172.474 20.1118 171.7 20.6531 171.046 21.3438C170.393 22.0158 169.889 22.8185 169.534 23.7518C169.179 24.6851 169.002 25.6931 169.002 26.7758C169.002 27.8958 169.17 28.9225 169.506 29.8558C169.861 30.7891 170.355 31.5918 170.99 32.2638C171.625 32.9358 172.399 33.4585 173.314 33.8318C174.229 34.1865 175.256 34.3638 176.394 34.3638C178.037 34.3638 179.437 33.9905 180.594 33.2438C181.752 32.4971 182.61 31.2558 183.17 29.5198H179.67C179.539 29.9678 179.185 30.3971 178.606 30.8078C178.027 31.1998 177.337 31.3958 176.534 31.3958C175.414 31.3958 174.555 31.1065 173.958 30.5278C173.361 29.9491 173.034 29.0158 172.978 27.7278Z" fill="#5D6491"/>
<path d="M192.948 33.9998L197.848 19.5238H193.9L190.848 29.4078H190.792L187.74 19.5238H183.568L188.524 33.9998H192.948Z" fill="#5D6491"/>
</svg>
