<svg width="23" height="24" viewBox="0 0 23 24" fill="none" xmlns="http://www.w3.org/2000/svg">
<path fill-rule="evenodd" clip-rule="evenodd" d="M11.6017 0.734985C12.2063 0.734985 12.7862 0.975164 13.2137 1.40268C13.6412 1.83021 13.8814 2.41005 13.8814 3.01465V9.85365H20.7204C21.325 9.85365 21.9048 10.0938 22.3323 10.5214C22.7599 10.9489 23 11.5287 23 12.1333C23 12.7379 22.7599 13.3178 22.3323 13.7453C21.9048 14.1728 21.325 14.413 20.7204 14.413H13.8814V21.252C13.8814 21.8566 13.6412 22.4364 13.2137 22.864C12.7862 23.2915 12.2063 23.5317 11.6017 23.5317C10.9971 23.5317 10.4173 23.2915 9.98973 22.864C9.56221 22.4364 9.32204 21.8566 9.32204 21.252V14.413H2.48304C1.87843 14.413 1.29859 14.1728 0.871066 13.7453C0.443546 13.3178 0.203369 12.7379 0.203369 12.1333C0.203369 11.5287 0.443546 10.9489 0.871066 10.5214C1.29859 10.0938 1.87843 9.85365 2.48304 9.85365H9.32204V3.01465C9.32204 2.41005 9.56221 1.83021 9.98973 1.40268C10.4173 0.975164 10.9971 0.734985 11.6017 0.734985Z" fill="white" fill-opacity="0.8"/>
</svg>
